<svg width="440" height="580" viewBox="0 0 440 580" xmlns="http://www.w3.org/2000/svg">
  <defs>
    <linearGradient id="bg" x1="0%" y1="0%" x2="100%" y2="100%">
      <stop offset="0%" style="stop-color:#1a1a1a;stop-opacity:1" />
      <stop offset="100%" style="stop-color:#0a0a0a;stop-opacity:1" />
    </linearGradient>
    <linearGradient id="accent" x1="0%" y1="0%" x2="100%" y2="100%">
      <stop offset="0%" style="stop-color:#ff0080;stop-opacity:1" />
      <stop offset="100%" style="stop-color:#8000ff;stop-opacity:1" />
    </linearGradient>
    <filter id="glow">
      <fegaussianblur stdDeviation="3" result="coloredBlur"/>
      <femerge> 
        <femergenode in="coloredBlur"/>
        <femergenode in="SourceGraphic"/>
      </femerge>
    </filter>
    <pattern id="circuit" patternUnits="userSpaceOnUse" width="40" height="40">
      <rect width="40" height="40" fill="none"/>
      <path d="M0 20h10v-10h10v10h10v-10h10v20" stroke="url(#accent)" stroke-width="0.5" opacity="0.3" fill="none"/>
      <circle cx="10" cy="10" r="1" fill="url(#accent)" opacity="0.5"/>
      <circle cx="30" cy="10" r="1" fill="url(#accent)" opacity="0.5"/>
    </pattern>
  </defs>
  
  <rect width="440" height="580" fill="url(#bg)"/>
  <rect width="440" height="580" fill="url(#circuit)" opacity="0.1"/>
  
  <rect x="20" y="30" width="400" height="2" fill="url(#accent)" opacity="0.6"/>
  
  <text x="220" y="65" text-anchor="middle" fill="#666" font-family="monospace" font-size="11" letter-spacing="2">
    贰零贰四
  </text>
  
  <text x="220" y="110" text-anchor="middle" fill="url(#accent)" font-family="sans-serif" font-size="28" font-weight="bold" filter="url(#glow)">
    自律即自由
  </text>
  
  <text x="220" y="135" text-anchor="middle" fill="#888" font-family="sans-serif" font-size="12" letter-spacing="1">
      
  </text>
  
  <rect x="40" y="160" width="360" height="1" fill="url(#accent)" opacity="0.4"/>
  
  <rect x="50" y="185" width="4" height="60" fill="url(#accent)"/>
  <text x="70" y="205" fill="#ccc" font-family="sans-serif" font-size="14" font-weight="300">
    当追求最高版本自我的渴望
  </text>
  <text x="70" y="225" fill="#ccc" font-family="sans-serif" font-size="14" font-weight="300">
    超越对廉价快乐的依赖时
  </text>
  
  <rect x="50" y="270" width="340" height="180" fill="none" stroke="url(#accent)" stroke-width="1" opacity="0.3"/>
  <text x="60" y="295" fill="url(#accent)" font-family="sans-serif" font-size="13" font-weight="600">
    &; 潜能释放协议
  </text>
  
  <circle cx="75" cy="320" r="2" fill="url(#accent)"/>
  <text x="90" y="325" fill="#bbb" font-family="sans-serif" font-size="12">
    识别内在驱动系统
  </text>
  
  <circle cx="75" cy="345" r="2" fill="url(#accent)"/>
  <text x="90" y="350" fill="#bbb" font-family="sans-serif" font-size="12">
    建立意志力神经回路
  </text>
  
  <circle cx="75" cy="370" r="2" fill="url(#accent)"/>
  <text x="90" y="375" fill="#bbb" font-family="sans-serif" font-size="12">
    升级决策执行模块
  </text>
  
  <circle cx="75" cy="395" r="2" fill="url(#accent)"/>
  <text x="90" y="400" fill="#bbb" font-family="sans-serif" font-size="12">
    激活长期价值算法
  </text>
  
  <circle cx="75" cy="420" r="2" fill="url(#accent)"/>
  <text x="90" y="425" fill="#bbb" font-family="sans-serif" font-size="12">
    屏蔽即时满足干扰
  </text>
  
  <rect x="50" y="470" width="340" height="60" fill="rgba(255,0,128,0.05)" stroke="url(#accent)" stroke-width="1" opacity="0.4"/>
  <text x="60" y="490" fill="url(#accent)" font-family="sans-serif" font-size="11" font-weight="600">
    系统提示
  </text>
  <text x="60" y="510" fill="#999" font-family="sans-serif" font-size="11">
    真正的自由来自对低级欲望的超越
  </text>
  <text x="60" y="525" fill="#999" font-family="sans-serif" font-size="11">
    每一次选择都在重新编程你的未来
  </text>
  
  <rect x="20" y="548" width="400" height="2" fill="url(#accent)" opacity="0.6"/>
  
  <text x="220" y="570" text-anchor="middle" fill="#666" font-family="monospace" font-size="10" letter-spacing="1">
     
  </text>
</svg>