<svg width="440" height="580" viewBox="0 0 440 580" xmlns="http://www.w3.org/2000/svg" xmlns:xlink="http://www.w3.org/1999/xlink">
  <defs>
    <style>
      
      
      
      
      :root {
        --pop-red: #FF3B30;
        --pop-yellow: #FFCC00;
        --pop-blue: #007AFF;
        --pop-black: #000000;
        --pop-white: #FFFFFF;
      }
      
      .comic-font {
        font-family: 'Impact', 'Arial Black', sans-serif;
        font-weight: 900;
        letter-spacing: -0.02em;
      }
      
      .dot-pattern {
        background-image: radial-gradient(circle, var(--pop-black) 1px, transparent 1px);
        background-size: 10px 10px;
      }
    </style>
    
    <pattern id="halftone" patternUnits="userSpaceOnUse" width="20" height="20">
      <circle cx="10" cy="10" r="8" fill="var(--pop-black)" opacity="0.6"/>
    </pattern>
    
    <pattern id="comic-dots" patternUnits="userSpaceOnUse" width="6" height="6">
      <circle cx="3" cy="3" r="1" fill="var(--pop-black)"/>
    </pattern>
  </defs>
  
  <rect width="440" height="580" fill="var(--pop-white)"/>
  
  <rect x="0" y="0" width="440" height="80" fill="var(--pop-yellow)"/>
  <rect x="0" y="500" width="440" height="80" fill="var(--pop-blue)"/>
  
  <text x="220" y="40" text-anchor="middle" class="comic-font" font-size="36" fill="var(--pop-black)">2024</text>
  
  <rect x="20" y="100" width="400" height="120" fill="var(--pop-red)" stroke="var(--pop-black)" stroke-width="3"/>
  <text x="220" y="140" text-anchor="middle" class="comic-font" font-size="28" fill="var(--pop-white)">专注力修炼指南</text>
  <text x="220" y="170" text-anchor="middle" class="comic-font" font-size="18" fill="var(--pop-white)">MASTERING FOCUS</text>
  
  <rect x="30" y="240" width="380" height="200" fill="var(--pop-white)" stroke="var(--pop-black)" stroke-width="2"/>
  
  <path d="M50,260 Q70,250 90,260 T130,260 T170,260 T210,260 T250,260 T290,260 T330,260 T370,260" stroke="var(--pop-black)" stroke-width="2" fill="none"/>
  
  <text x="220" y="290" text-anchor="middle" font-family="'Noto Sans SC', sans-serif" font-size="16" font-weight="500" fill="var(--pop-black)">
    <tspan x="220" dy="0">专注不是天赋，而是需要反复练习的技能</tspan>
    <tspan x="220" dy="24">觉察分心 → 立即回归 → 形成本能</tspan>
    <tspan x="220" dy="24">大多数人的专注肌肉从未得到真正训练</tspan>
  </text>
  
  <rect x="50" y="330" width="340" height="40" fill="var(--pop-yellow)" stroke="var(--pop-black)" stroke-width="2"/>
  <text x="220" y="355" text-anchor="middle" class="comic-font" font-size="18" fill="var(--pop-black)">"专注是反脆弱的肌肉"</text>
  
  <rect x="50" y="390" width="340" height="40" fill="var(--pop-blue)" stroke="var(--pop-black)" stroke-width="2"/>
  <text x="220" y="415" text-anchor="middle" font-family="'Noto Sans SC', sans-serif" font-size="14" font-weight="700" fill="var(--pop-white)">
    EDITOR'S TIP: 每日专注训练 × 3次
  </text>
  
  <circle cx="400" cy="520" r="25" fill="var(--pop-red)" stroke="var(--pop-black)" stroke-width="2"/>
  <text x="400" y="525" text-anchor="middle" class="comic-font" font-size="20" fill="var(--pop-white)">!</text>
  
  <circle cx="40" cy="520" r="25" fill="var(--pop-yellow)" stroke="var(--pop-black)" stroke-width="2"/>
  <text x="40" y="525" text-anchor="middle" class="comic-font" font-size="20" fill="var(--pop-black)">?</text>
  
  <rect x="180" y="530" width="80" height="30" fill="var(--pop-white)" stroke="var(--pop-black)" stroke-width="2"/>
  <text x="220" y="550" text-anchor="middle" font-family="'Noto Sans SC', sans-serif" font-size="12" font-weight="700" fill="var(--pop-black)">VOL.24</text>
  
  <circle cx="100" cy="80" r="15" fill="var(--pop-blue)" stroke="var(--pop-black)" stroke-width="2"/>
  <circle cx="340" cy="80" r="15" fill="var(--pop-red)" stroke="var(--pop-black)" stroke-width="2"/>
  
  <rect x="150" y="50" width="140" height="10" fill="var(--pop-black)"/>
  <rect x="150" y="70" width="140" height="10" fill="var(--pop-black)"/>
</svg>